<svg
      xmlns="http://www.w3.org/2000/svg"
      x="0"
      y="0"
      enableBackground="new 0 0 500 500"
      viewBox="0 0 500 500"
    >
      <g>
        <path
          fill="#17f917"
          d="M456.551 209.106c-48.744-83.474-180.95-53.744-207.955-94.349-13.827-20.79-29.295-44.889-51.732-57.421-21.389-11.947-46.19-16.21-67.811-14.627-77.208 5.651-109.946 74.73-95.109 150.59C53.736 294.491 143.44 397.858 250.008 398.582c55.736.379 108.948-19.545 150.689-47.71l.934-.633c41.7-28.385 92.135-77.402 54.92-141.133z"
        ></path>
        <path
          fill="#FFF"
          d="M456.551 209.106c-48.744-83.474-180.95-53.744-207.955-94.349-13.827-20.79-29.295-44.889-51.732-57.421-21.389-11.947-46.19-16.21-67.811-14.627-77.208 5.651-109.946 74.73-95.109 150.59C53.736 294.491 143.44 397.858 250.008 398.582c55.736.379 108.948-19.545 150.689-47.71l.934-.633c41.7-28.385 92.135-77.402 54.92-141.133z"
          opacity="0.7"
        ></path>
      </g>
      <g
        fill="none"
        stroke="#263238"
        strokeDasharray="4.412"
        strokeLinecap="round"
        strokeLinejoin="round"
        strokeMiterlimit="10"
        strokeWidth="1.103"
      >
        <path d="M78.189 215.179H72.77c-12.113 0-21.932 9.819-21.932 21.932v120.342c0 12.112 9.819 21.932 21.932 21.932h74.36c12.113 0 21.932-9.819 21.932-21.932h0M162.964 101.629V77.857c0-7.418 6.014-13.432 13.432-13.432h96.702c7.418 0 13.432 6.014 13.432 13.432h0"></path>
      </g>
      <g>
        <ellipse
          cx="250"
          cy="445.399"
          fill="#17f917"
          rx="191.522"
          ry="26.764"
        ></ellipse>
        <ellipse
          cx="250"
          cy="445.399"
          fill="#FFF"
          opacity="0.5"
          rx="191.522"
          ry="26.764"
        ></ellipse>
      </g>
      <g>
        <path
          fill="#FFF"
          stroke="#263238"
          strokeLinecap="round"
          strokeLinejoin="round"
          strokeMiterlimit="10"
          strokeWidth="1.103"
          d="M430.54 133.524v180.06c0 12.255-9.939 22.195-22.194 22.195H91.655c-12.256 0-22.195-9.939-22.195-22.195v-180.06c0-.529.022-1.048.066-1.566.794-11.527 10.402-20.639 22.128-20.639h316.691c11.726 0 21.334 9.112 22.128 20.639.045.518.067 1.037.067 1.566z"
        ></path>
        <path
          fill="#263238"
          d="M400.071 327.408H101.06c-11.488 0-20.8-9.313-20.8-20.8V140.276h340.611v166.331c0 11.488-9.312 20.801-20.8 20.801z"
        ></path>
        <path
          fill="#FFF"
          d="M420.877 140.275v166.337c0 11.483-9.215 20.793-20.569 20.793H100.829c-11.353 0-20.569-9.31-20.569-20.793V140.275h340.617z"
          opacity="0.2"
        ></path>
        <path
          fill="#17f917"
          stroke="#263238"
          strokeMiterlimit="10"
          strokeWidth="1.103"
          d="M430.474 131.958H69.526c.794-11.527 10.402-20.639 22.128-20.639h316.691c11.726 0 21.334 9.111 22.129 20.639z"
        ></path>
        <path
          fill="#263238"
          d="M113.881 121.638a3.931 3.931 0 11-7.862 0 3.931 3.931 0 017.862 0zM130.504 121.638a3.931 3.931 0 11-7.862 0 3.931 3.931 0 017.862 0z"
        ></path>
        <circle cx="143.195" cy="121.638" r="3.931" fill="#263238"></circle>
        <path
          fill="none"
          stroke="#263238"
          strokeMiterlimit="10"
          strokeWidth="1.103"
          d="M420.871 140.282v166.326c0 11.483-9.31 20.805-20.805 20.805H101.059c-10.104 0-18.521-7.214-20.396-16.767l-.011-.011v-.044a20.632 20.632 0 01-.386-3.982V140.282h340.605z"
        ></path>
        <path
          fill="#263238"
          d="M420.548 166.008a21.142 21.142 0 00-4.622-1.908l-1.864-8.35h-7.942l-1.853 8.35a20.49 20.49 0 00-4.633 1.908l-7.17-4.589-5.615 5.615 4.512 7.17a20.4 20.4 0 00-1.908 4.633l-8.35 1.853v7.942l8.35 1.864a20.242 20.242 0 001.908 4.666l-4.589 7.214 5.615 5.615 7.214-4.589a20.523 20.523 0 004.633 1.919l1.853 8.34h7.942l1.864-8.34a21.177 21.177 0 004.622-1.919l.364.232v-37.837l-.331.211zm-10.435 28.957a10.254 10.254 0 01-10.259-10.259c0-5.659 4.589-10.259 10.259-10.259s10.259 4.6 10.259 10.259c0 5.67-4.589 10.259-10.259 10.259zM277.451 174.052v-16.745l-17.606-3.905a45.503 45.503 0 00-4.026-9.774l2.129-3.353h-83.097l2.052 3.265a43.308 43.308 0 00-4.015 9.762l-17.606 3.916v16.745l17.606 3.927a43.928 43.928 0 004.015 9.84l-9.674 15.212 11.847 11.836 15.201-9.674a44.76 44.76 0 009.773 4.048l3.905 17.583H224.7l3.938-17.583a45.127 45.127 0 009.74-4.048l15.212 9.674 11.836-11.836-9.608-15.212a45.855 45.855 0 004.026-9.751l17.607-3.927zm-61.002 13.26c-11.947 0-21.632-9.685-21.632-21.632s9.685-21.632 21.632-21.632c11.947 0 21.632 9.685 21.632 21.632s-9.685 21.632-21.632 21.632zM166.385 289.036l.706-13.281-13.767-3.883a37.285 37.285 0 00-2.824-7.898l8.317-11.682-8.913-9.895-12.465 7.049a36.906 36.906 0 00-7.589-3.629l-2.383-14.12-13.281-.706-3.839 13.811a34.703 34.703 0 00-7.898 2.802l-11.671-8.317-9.906 8.913 7.06 12.476a34.487 34.487 0 00-3.64 7.578l-4.026.662v17.992l2.923.827a34.747 34.747 0 002.824 7.92l-5.747 8.042.386 6.894v.044l.011.011 5.924 6.575 12.487-7.049a34.592 34.592 0 007.611 3.673l2.272 13.557v.011l.11.563 13.281.706.353-1.269v-.011l3.486-12.531a35.587 35.587 0 007.942-2.802l11.649 8.306 9.906-8.902-7.038-12.487a34.488 34.488 0 003.596-7.567l14.143-2.383zm-35.278-20.75c-6.354-7.06-17.23-7.633-24.29-1.28-7.06 6.354-7.633 17.23-1.28 24.29 6.354 7.06 17.23 7.622 24.29 1.268 7.06-6.352 7.634-17.218 1.28-24.278zM272.601 269.189a27.05 27.05 0 00.806-6.29l9.549-5.02-2.639-9.688-10.778.504a26.844 26.844 0 00-3.872-5.004l3.194-10.311-8.703-4.986-7.281 7.945a28.245 28.245 0 00-6.27-.799l-5.041-9.556-9.674 2.632.511 10.792a27.353 27.353 0 00-5.014 3.868l-10.314-3.184-4.992 8.689 7.988 7.262a26.207 26.207 0 00-.788 6.273l-9.566 5.037 2.639 9.688 10.792-.511a25.706 25.706 0 003.858 5.01l-3.209 10.258 8.704 4.986 7.244-7.877c2.056.516 4.158.78 6.284.792l5.027 9.563 9.674-2.632-.424-9.218-.072-1.58a26.597 26.597 0 005.063-3.874l10.307 3.204 4.259-7.444.727-1.26-7.989-7.269zm-22.873 5.885c-6.912 1.881-14.033-2.199-15.908-9.097-1.881-6.912 2.199-14.033 9.097-15.908 6.912-1.881 14.033 2.199 15.908 9.097 1.881 6.912-2.199 14.034-9.097 15.908zM383.316 286.227l2.206-13.292-13.458-5.416a35.738 35.738 0 00-1.93-8.295l9.685-10.788-7.843-10.965-13.359 5.67a35.534 35.534 0 00-7.214-4.479l-.783-14.495-13.303-2.195-5.449 13.403a37.188 37.188 0 00-8.262 1.942l-10.822-9.685-10.954 7.843 5.681 13.348a36.309 36.309 0 00-4.048 6.288c-.154.309-.309.618-.452.927l-14.484.805-2.206 13.281 2.184.883 11.274 4.545a35.05 35.05 0 001.93 8.262l-9.685 10.822 7.843 10.954 13.359-5.692a34.656 34.656 0 007.203 4.512l.75 14.429 13.292 2.195 5.438-13.303a34.993 34.993 0 008.284-1.941l10.799 9.696 10.965-7.854-5.681-13.359a34.86 34.86 0 004.556-7.247l14.484-.799zm-37.296-.595c-7.821 5.593-18.698 3.795-24.29-4.026-5.604-7.81-3.795-18.687 4.015-24.279 7.821-5.604 18.698-3.795 24.29 4.015 5.604 7.82 3.795 18.697-4.015 24.29z"
        ></path>
      </g>
      <g>
        <path
          fill="#17f917"
          stroke="#263238"
          strokeMiterlimit="10"
          strokeWidth="1.103"
          d="M203.076 358.784H98.499c-7.24 0-13.11-5.87-13.11-13.11V200.88c0-7.24 5.869-13.11 13.11-13.11h104.577c7.24 0 13.11 5.87 13.11 13.11v144.794c0 7.241-5.87 13.11-13.11 13.11z"
        ></path>
        <path
          d="M203.076 358.784H98.499c-7.24 0-13.11-5.87-13.11-13.11V200.88c0-7.24 5.869-13.11 13.11-13.11h104.577c7.24 0 13.11 5.87 13.11 13.11v144.794c0 7.241-5.87 13.11-13.11 13.11z"
          opacity="0.2"
        ></path>
        <path
          fill="#FFF"
          stroke="#263238"
          strokeLinecap="round"
          strokeLinejoin="round"
          strokeMiterlimit="10"
          strokeWidth="1.103"
          d="M228.362 213.797V358.59c0 7.247-5.868 13.116-13.116 13.116H110.671c-7.236 0-13.105-5.868-13.105-13.116V213.797c0-7.236 5.868-13.105 13.105-13.105h104.575c7.247 0 13.116 5.868 13.116 13.105z"
        ></path>
        <path
          fill="#17f917"
          stroke="#263238"
          strokeMiterlimit="10"
          strokeWidth="1.103"
          d="M228.362 213.797v7.755H97.566v-7.755c0-7.236 5.868-13.105 13.105-13.105h104.575c7.247 0 13.116 5.868 13.116 13.105z"
        ></path>
        <path
          fill="#17f917"
          d="M109.867 230.534H142.04500000000002V235.93099999999998H109.867z"
        ></path>
        <path
          fill="#17f917"
          d="M109.867 278.922H142.04500000000002V284.319H109.867z"
        ></path>
        <path
          fill="#17f917"
          d="M109.867 322.802H142.04500000000002V328.199H109.867z"
        ></path>
        <g fill="#263238">
          <path d="M109.867 243.896H201.25900000000001V247.855H109.867z"></path>
          <path d="M109.867 251.473H184.779V255.33100000000002H109.867z"></path>
          <path d="M109.867 258.922H194.589V262.78000000000003H109.867z"></path>
          <path d="M109.867 266.363H194.589V270.221H109.867z"></path>
        </g>
        <g fill="#263238">
          <path d="M109.867 287.776H201.25900000000001V291.735H109.867z"></path>
          <path d="M109.867 295.353H184.779V299.211H109.867z"></path>
          <path d="M109.867 302.801H194.589V306.659H109.867z"></path>
        </g>
        <g fill="#263238">
          <path d="M109.867 335.962H201.25900000000001V339.921H109.867z"></path>
          <path d="M109.867 343.539H184.779V347.397H109.867z"></path>
          <path d="M109.867 350.988H194.589V354.846H109.867z"></path>
        </g>
        <g>
          <path
            fill="#FFF"
            stroke="#222221"
            strokeMiterlimit="10"
            strokeWidth="1.103"
            d="M375.765 100.294v58.52c0 8.637-6.994 15.631-15.631 15.631H225.346c-8.626 0-15.631-6.994-15.631-15.631v-58.52c0-8.637 7.005-15.642 15.631-15.642h134.788c8.637 0 15.631 7.005 15.631 15.642z"
          ></path>
          <path
            fill="#17f917"
            stroke="#263238"
            strokeMiterlimit="10"
            strokeWidth="1.103"
            d="M375.765 100.294v1.335h-166.05v-1.335c0-8.637 7.005-15.642 15.631-15.642h134.788c8.637 0 15.631 7.005 15.631 15.642z"
          ></path>
          <path
            fill="#263238"
            d="M234.109 95.937a2.394 2.394 0 11-3.386-3.386 2.394 2.394 0 013.386 3.386zM245.229 95.937a2.394 2.394 0 11-3.386-3.386 2.394 2.394 0 013.386 3.386zM256.349 95.937a2.394 2.394 0 11-3.386-3.386 2.394 2.394 0 013.386 3.386z"
          ></path>
          <path
            fill="none"
            stroke="#263238"
            strokeDasharray="4.412"
            strokeLinecap="round"
            strokeLinejoin="round"
            strokeMiterlimit="10"
            strokeWidth="1.103"
            d="M220.303 112.39H274.581V159.308H220.303z"
          ></path>
          <g fill="#263238">
            <path d="M282.956 112.39H345.423V115.685H282.956z"></path>
            <path d="M282.956 119.223H330.872V122.518H282.956z"></path>
            <path d="M282.956 126.017H354.309V129.351H282.956z"></path>
            <path d="M282.956 132.655H343.714V135.989H282.956z"></path>
          </g>
        </g>
      </g>
      <g>
        <path
          fill="#17f917"
          d="M296.863 440.465s-29.001 8.317-33.049 9.751c-3.684 1.302-13.667 4.798-21.158 3.717a16.382 16.382 0 01-2.14-.463c-7.589-2.261-10.998-4.368-11.991-9.145-1.004-4.787 2.78-8.284 6.42-10.535 3.64-2.25 23.386-4.6 23.386-4.6l4.765 1.401h.011l33.756 9.874z"
        ></path>
        <path
          fill="#FFF"
          d="M242.657 453.934a16.382 16.382 0 01-2.14-.463c-7.589-2.261-10.998-4.368-11.991-9.145-1.004-4.787 2.78-8.284 6.42-10.535 3.64-2.25 23.386-4.6 23.386-4.6l4.765 1.401c-4.313 1.986-20.396 3.089-23.904 5.107-3.508 2.019-5.207 5.824-3.133 10.965 1.103 2.737 4.059 5.384 6.597 7.27z"
        ></path>
        <path
          fill="none"
          stroke="#263238"
          strokeLinecap="round"
          strokeLinejoin="round"
          strokeMiterlimit="10"
          strokeWidth="1.103"
          d="M292.5 441.648s-21.78 5.643-30.416 9.255c-8.636 3.612-25.114 5.192-30.983-2.257s-.677-13.857 5.192-15.281 17.737-3.681 24.218-2.778"
        ></path>
        <path
          fill="none"
          stroke="#263238"
          strokeLinecap="round"
          strokeLinejoin="round"
          strokeMiterlimit="10"
          strokeWidth="1.103"
          d="M243.094 453.538s-11.082-6.076-7.402-14.593c2.716-6.285 17.499-4.922 24.819-8.358"
        ></path>
        <path
          fill="#17f917"
          d="M385.189 455.28c-.298 2.967-1.346 5.813-4.346 7.578-1.997 1.18-4.843 1.886-8.913 1.842-10.171-.132-29.287-7.402-29.287-7.402l-17.903-9.895 9.31-14.737 2.548-4.038 6.585 1.478s5.449 3.089 10.932 5.548c5.482 2.46 18.786 2.978 23.474 6.773 4.688 3.785 8.107 7.911 7.6 12.853z"
        ></path>
        <path
          fill="#FFF"
          d="M385.189 455.28c-.298 2.967-1.346 5.813-4.346 7.578.563-2.306 1.026-5.494-.507-8.935-1.986-4.49-8.505-8.45-17.065-9.111-8.549-.662-15.113-4.666-18.543-6.453-2.68-1.39-8.328-4.423-10.678-5.692l2.548-4.038 6.585 1.478s5.449 3.089 10.932 5.548c5.482 2.46 18.786 2.978 23.474 6.773 4.688 3.784 8.107 7.91 7.6 12.852z"
        ></path>
        <path
          fill="none"
          stroke="#263238"
          strokeLinecap="round"
          strokeLinejoin="round"
          strokeMiterlimit="10"
          strokeWidth="1.103"
          d="M328.706 450.178c12.745 7.301 27.322 12.558 41.904 14.315 3.256.392 7.046.446 9.228-2.001 1.216-1.364 1.66-3.294 1.504-5.115-.395-4.596-4.259-8.241-8.497-10.062-4.238-1.822-8.918-2.257-13.419-3.266a53.012 53.012 0 01-12.905-4.721c-3.236-1.688-6.368-3.739-9.939-4.495-3.571-.756-7.824.161-9.728 3.275"
        ></path>
        <path
          fill="none"
          stroke="#263238"
          strokeLinecap="round"
          strokeLinejoin="round"
          strokeMiterlimit="10"
          strokeWidth="1.103"
          d="M378.643 463.739c3.295-1.691 6-4.797 6.549-8.46.649-4.332-1.818-8.687-5.295-11.352-3.477-2.665-7.82-3.916-12.109-4.807-4.289-.892-8.675-1.491-12.755-3.085-6.273-2.451-12.46-7.292-18.97-5.565"
        ></path>
        <path
          fill="#17f917"
          d="M348.908 295.263l-30.291-11.527-.375-.144s.11-.805.199-1.974c.188-2.416.287-6.354-.849-7.689-1.688-1.975-6.475-.32-11.141-2.46s-13.303 1.688-13.303 1.688-6.233-1.147-8.979 3.354c-1.401 3.629-.916 9.034-.916 9.034s-.198.077-.574.21c-3.607 1.346-23.242 8.737-27.401 11.704-4.589 3.254-9.663 36.623-11.296 46.419-1.633 9.806-4.534 18.631-3.056 22.007 1.467 3.365 22.57 19.613 34.704 23.805 12.134 4.203 55.188 2.967 55.188 2.967s.706-.188 1.952-.585c7.281-2.339 33.115-11.969 46.816-34.682-.001 0-13.271-43.528-30.678-62.127zm-81.84 56.126c-2.228 1.578-1.037 7.7-1.037 7.7l-3.795-3.342 9.52-23.408 4.059 17.97c.001-.001-6.518-.486-8.747 1.08zm76.159 14.87c-1.048.54 3.012-10.711 1.081-13.259-1.93-2.559-7.711-2.305-7.711-2.305l.496-3.078 3.431-17.594 1.136-1.357s11.781 20.198 13.888 27.313c0-.001-12.84 10.28-12.321 10.28z"
        ></path>
        <path
          fill="#FFF"
          d="M291.715 222.254l-15.634 16.599s-2.156 1.906-1.299 6.721c.857 4.815 2.852 8.952 4.36 9.272 1.507.321 3.62.324 3.62.324s3.35 7.261 5.723 10.114c0 0 .827 11.207.387 14.318 0 0 5.616 4.906 10.907 5.53 5.291.624 13.465-7.482 13.465-7.482l2.026-9.923s4.796-7.28 5.123-9.218c.327-1.938 2.52-1.441 3.597-2.397 1.077-.956 3.571-5.232 3.983-9.272.412-4.04.441-8.681-4.253-7.318-4.066-1.093-1.521-9.69-1.521-9.69l-7.146-6.305-23.338-1.273z"
        ></path>
        <path
          fill="#FFF"
          d="M318.616 283.736c-.243.64-.507 1.246-.805 1.809-2.581 4.865-13.822 14.131-13.822 14.131l-3.398-10.446-1.864 10.446c-3.751-1.633-15.19-11.549-15.19-11.549s-.386-.927-.86-2.372c.375-.132.574-.21.574-.21s-.485-5.405.916-9.034c2.747-4.501 8.979-3.354 8.979-3.354s8.637-3.828 13.303-1.688c4.666 2.14 9.454.485 11.141 2.46 1.688 1.974.651 9.663.651 9.663l.375.144z"
          opacity="0.5"
        ></path>
        <path
          d="M348.908 295.263l-30.291-11.527-.375-.144s.11-.805.199-1.974l-.629 3.927-4.479 6.089s7.574 2.733 13.977 6.161c4.452 2.383 7.008 7.23 6.422 12.245l-5.584 47.748-2.283 27.114 6.905 7.17c7.281-2.339 33.115-11.969 46.816-34.682-.001 0-13.271-43.528-30.678-62.127zm-5.681 70.996c-1.048.54 3.012-10.711 1.081-13.259-1.93-2.559-7.711-2.305-7.711-2.305l.496-3.078 3.431-17.594 1.136-1.357s11.781 20.198 13.888 27.313c0-.001-12.84 10.28-12.321 10.28zM277.868 353l-4.71-15.741s-8.445-28.804-14.236-35.908l1.522 20.257s-4.969 24.2-9.569 31.392c-4.6 7.181-5.593 8.979 0 8.979 5.604 0 19.194 10.844 19.194 10.844l-1.048-9.046L277.868 353zm-11.837 6.089l-3.795-3.342 9.52-23.408 4.059 17.97s-6.519-.485-8.748 1.081c-2.227 1.577-1.036 7.699-1.036 7.699z"
          opacity="0.2"
        ></path>
        <path
          fill="none"
          stroke="#263238"
          strokeLinecap="round"
          strokeLinejoin="round"
          strokeMiterlimit="10"
          strokeWidth="1.103"
          d="M288.485 265.284s.87 8.488 0 12.366M314.108 276.513s-.049-4.135.945-8.109"
        ></path>
        <path
          fill="none"
          stroke="#263238"
          strokeLinecap="round"
          strokeLinejoin="round"
          strokeMiterlimit="10"
          strokeWidth="1.103"
          d="M316.382 228.582s5.135 6.452 4.872 11.324c-.263 4.872-.658 10.666-.527 16.328.132 5.662-9.086 17.513-13.826 18.566-4.74 1.053-8.822 1.317-11.851-1.712-3.028-3.029-6.057-7.242-10.007-12.641-3.95-5.399-3.028-17.25-3.028-17.25"
        ></path>
        <path
          fill="none"
          stroke="#263238"
          strokeLinecap="round"
          strokeLinejoin="round"
          strokeMiterlimit="10"
          strokeWidth="1.103"
          d="M304.021 247.714a26.739 26.739 0 00-.401 5.367c.04 1.504.263 3.13 1.317 4.204.568.579 1.392 1.042 1.5 1.845.096.713-.449 1.36-1.055 1.748-.606.388-1.309.628-1.851 1.1M295.866 262.604s.594 3.827 5.726 4.628"
        ></path>
        <path
          fill="#263238"
          d="M296.4 250.632c0 1.106-.478 2.003-1.068 2.003-.59 0-1.068-.897-1.068-2.003s.478-2.003 1.068-2.003c.59.001 1.068.897 1.068 2.003zM311.71 251.113c0 1.106-.478 2.003-1.068 2.003-.59 0-1.068-.897-1.068-2.003s.478-2.003 1.068-2.003c.589.001 1.068.897 1.068 2.003z"
        ></path>
        <path
          fill="none"
          stroke="#263238"
          strokeLinecap="round"
          strokeLinejoin="round"
          strokeMiterlimit="10"
          strokeWidth="2.206"
          d="M308.621 246.265s4.978-4.978 9.19.574M298.091 246.361s-3.159-3.542-8.137 0"
        ></path>
        <path
          fill="#263238"
          d="M288.871 269.948s3.049 8.404 9.858 10.788c6.81 2.383 15.851-9.986 15.851-9.986l-.473-1.609s-5.924 7.697-12.515 6.385c-6.591-1.313-13.108-10.242-13.108-10.242l.387 4.664z"
        ></path>
        <path
          fill="none"
          stroke="#263238"
          strokeLinecap="round"
          strokeLinejoin="round"
          strokeMiterlimit="10"
          strokeWidth="1.103"
          d="M282.762 254.846s-4.059 1.433-5.138-1.73c-1.079-3.163-4.779-11.488-1.542-14.263 3.238-2.775 5.84 3.664 5.84 3.664M320.72 256.57s3.773.759 4.852-2.404c1.079-3.163 4.779-11.488 1.542-14.264-3.238-2.775-5.84 3.664-5.84 3.664"
        ></path>
        <path
          fill="#263238"
          d="M281.921 250.632c1.124-.051 2.97-1.147 3.562-2.105.592-.957.843-2.083 1.035-3.192.368-2.124.557-4.279.564-6.434.003-.842-.02-1.702.226-2.507.256-.839.788-1.565 1.357-2.232 1.417-1.66 3.122-3.063 4.469-4.78 1.347-1.717 2.337-3.891 1.973-6.043 0 0 9.205 8.414 22.474 5.812 7.143-1.401 14-7.67 13.165-15.549-.297-2.804-2.358-4.82-5.033-5.486-3.531-.878-6.704 1.004-9.903 2.211-5.833 2.2-11.54-1.578-17.433-2.211-5.04-.542-11.225.083-13.85 5.094 0 0-9.052 1.064-13.018 8.498-3.965 7.435 3.572 17.728 3.572 17.728s3.034-3.672 6.932 3.762l-.092 7.434z"
        ></path>
        <path
          fill="#263238"
          d="M316.952 226.681s-2.341 12.199 3.767 18.105c0 0 1.337-3.667 2.692-4.562 0 0 3.4-6.445-1.07-13.544-4.468-7.098-5.389.001-5.389.001z"
        ></path>
        <path
          fill="none"
          stroke="#FFF"
          strokeLinecap="round"
          strokeLinejoin="round"
          strokeMiterlimit="10"
          strokeWidth="1.103"
          d="M328.142 212.799c-.904 3.362-3.747 5.963-6.971 7.276-8.48 3.454-16.716-.377-25.206-1.127-6.939-.613-14.588 5.638-15.073 12.762M275.626 229.831c.128-5.608 3.833-10.975 9.032-13.082"
          opacity="0.2"
        ></path>
        <path
          fill="none"
          stroke="#263238"
          strokeLinecap="round"
          strokeLinejoin="round"
          strokeMiterlimit="10"
          strokeWidth="1.103"
          d="M286.53 276.513s5.587 6.156 13.205 9.034c0 0 10.151-2.944 15.318-10.022"
        ></path>
        <ellipse
          cx="293.147"
          cy="250.632"
          fill="none"
          stroke="#263238"
          strokeLinecap="round"
          strokeLinejoin="round"
          strokeMiterlimit="10"
          strokeWidth="1.103"
          rx="8.983"
          ry="8.983"
          transform="rotate(-24.638 293.113 250.61)"
        ></ellipse>
        <ellipse
          cx="313.216"
          cy="250.632"
          fill="none"
          stroke="#263238"
          strokeLinecap="round"
          strokeLinejoin="round"
          strokeMiterlimit="10"
          strokeWidth="1.103"
          rx="8.983"
          ry="8.983"
          transform="rotate(-7.002 313.263 250.666)"
        ></ellipse>
        <path
          fill="none"
          stroke="#263238"
          strokeLinecap="round"
          strokeLinejoin="round"
          strokeMiterlimit="10"
          strokeWidth="1.103"
          d="M288.485 273.162s-2.731.553-4.321 3.35c-1.59 2.798-.631 11.609-.631 11.609s8.207 8.123 15.196 11.549l2.062-11.594 3.2 11.594s10.823-7.654 13.82-14.124c0 0 .977-7.544 0-10.022s-3.23-2.363-3.23-2.363M275.626 350.698s-3.204-21.495-7.474-30.265M258.921 301.351s4.055 5.685 6.639 11.111M343.228 317.399c1.129-4.283 2.329-8.04 3.528-10.492M336.596 350.698s2.315-14.736 5.069-26.881M340.521 330.018a16.95 16.95 0 018.942-6.115"
        ></path>
        <path
          fill="none"
          stroke="#263238"
          strokeLinecap="round"
          strokeLinejoin="round"
          strokeMiterlimit="10"
          strokeWidth="1.103"
          d="M318.245 283.592s18.639 7.445 30.668 11.673c0 0 14.8 13.918 30.668 62.126 0 0-14.545 24.46-42.201 32.302"
        ></path>
        <path
          fill="none"
          stroke="#263238"
          strokeLinecap="round"
          strokeLinejoin="round"
          strokeMiterlimit="10"
          strokeWidth="1.103"
          d="M342.184 367.135l13.363-11.157s7.069-5.373 14.421-1.697M341.665 328.669s11.054 16.281 13.881 27.309M266.152 359.707l-3.911-3.729s-5.805-1.015-12.378 3.392M262.241 355.978s4.857-15.954 9.648-24.191"
        ></path>
        <path
          fill="none"
          stroke="#263238"
          strokeLinecap="round"
          strokeLinejoin="round"
          strokeMiterlimit="10"
          strokeWidth="1.103"
          d="M283.247 285.547s-26.811 10.06-29.44 12.99c-2.629 2.93-12.62 59.197-12.883 65.636-.235 5.756 20.649 18.689 30.965 24.141"
        ></path>
        <path
          fill="#FFF"
          stroke="#263238"
          strokeLinecap="round"
          strokeLinejoin="round"
          strokeMiterlimit="10"
          strokeWidth="1.103"
          d="M380.311 276.513H349.76a6.532 6.532 0 01-6.532-6.532v-17.923a6.532 6.532 0 016.532-6.532h30.551a6.532 6.532 0 016.532 6.532v17.923a6.533 6.533 0 01-6.532 6.532z"
        ></path>
        <path
          fill="none"
          stroke="#263238"
          strokeLinecap="round"
          strokeLinejoin="round"
          strokeMiterlimit="10"
          strokeWidth="1.103"
          d="M357.3 254.846L348.913 260.111 356.696 267.013"
        ></path>
        <path
          fill="none"
          stroke="#263238"
          strokeLinecap="round"
          strokeLinejoin="round"
          strokeMiterlimit="10"
          strokeWidth="1.103"
          d="M372.582 267.515L380.119 261.092 371.419 255.388"
        ></path>
        <path
          fill="none"
          stroke="#263238"
          strokeLinecap="round"
          strokeLinejoin="round"
          strokeMiterlimit="10"
          strokeWidth="1.103"
          d="M361.377 271.467L367.568 252.054"
        ></path>
        <path
          fill="#263238"
          d="M303.296 304.556a1.763 1.763 0 11-3.525 0 1.763 1.763 0 013.525 0zM334.32 398.776h-61.018a1.43 1.43 0 010-2.86h61.018a1.43 1.43 0 010 2.86z"
        ></path>
        <path
          fill="#FFF"
          stroke="#263238"
          strokeLinecap="round"
          strokeLinejoin="round"
          strokeMiterlimit="10"
          strokeWidth="1.103"
          d="M336.456 394.034l8.177-38.399a4.086 4.086 0 00-3.997-4.937h-71.291a4.087 4.087 0 00-4.009 4.878l7.331 37.121a4.084 4.084 0 003.915 3.293l55.783 1.278a4.086 4.086 0 004.091-3.234z"
        ></path>
        <path
          fill="#263238"
          d="M310.439 372.826a5.692 5.692 0 11-11.384 0 5.692 5.692 0 0111.384 0z"
        ></path>
        <path
          fill="none"
          stroke="#263238"
          strokeLinecap="round"
          strokeLinejoin="round"
          strokeMiterlimit="10"
          strokeWidth="1.103"
          d="M321.625 354.341L330.095 354.341"
        ></path>
        <path
          fill="none"
          stroke="#263238"
          strokeLinecap="round"
          strokeLinejoin="round"
          strokeMiterlimit="10"
          strokeWidth="1.103"
          d="M281.176 354.341L313.328 354.341"
        ></path>
        <path
          fill="#263238"
          d="M336.596 434.771l-6.501 17.058s-16.572-4.177-37.807-8.529c-22.204-4.55-45.395-10.441-57.425-31.545-1.467-2.573-2.442-5.613-1.756-8.494 1.736-7.29 11.219-9.268 17.47-9.998 3.923-.458 7.884-.61 11.831-.665 2.012-.028 8.652-1.083 10.258.099 0 0 4.167 3.066 7.716 4.572 3.55 1.507 55.367-1.354 55.367-1.354s1.541-3.253 1.629-6.221c8.145-4.14 27.007-7.647 34.977-6.097 12.533 2.437 19.843 9.747 18.451 17.406-1.392 7.658-29.049 28.198-54.21 33.768z"
        ></path>
        <path
          fill="none"
          stroke="#FFF"
          strokeLinecap="round"
          strokeLinejoin="round"
          strokeMiterlimit="10"
          strokeWidth="1.103"
          d="M336.596 434.771s-15.762-4.177-28.643-12.881c-12.881-8.703-22.944-18.799-40.888-16.71"
        ></path>
        <path
          fill="none"
          stroke="#FFF"
          strokeLinecap="round"
          strokeLinejoin="round"
          strokeMiterlimit="10"
          strokeWidth="1.103"
          d="M304.99 419.837c8.136-2.341 14.107-7.603 20.636-12.657 6.915-5.354 14.228-10.539 22.093-14.517"
        ></path>
        <path
          fill="none"
          stroke="#263238"
          strokeLinecap="round"
          strokeLinejoin="round"
          strokeMiterlimit="10"
          strokeWidth="1.103"
          d="M302.13 252.054L304.517 252.054"
        ></path>
      </g>
    </svg>